<?xml version="1.0" standalone="no"?>
<!DOCTYPE svg PUBLIC "-//W3C//DTD SVG 20010904//EN"
 "http://www.w3.org/TR/2001/REC-SVG-20010904/DTD/svg10.dtd">
<svg version="1.0" xmlns="http://www.w3.org/2000/svg"
 width="450.000000pt" height="450.000000pt" viewBox="0 0 450.000000 450.000000"
 preserveAspectRatio="xMidYMid meet">

<g transform="translate(0.000000,450.000000) scale(0.100000,-0.100000)"
fill="#000000" stroke="none">
<path d="M1285 3391 c-723 -442 -980 -604 -980 -618 0 -17 70 -18 1970 -18
1909 0 1970 1 1970 18 0 14 -249 171 -975 614 -536 328 -982 597 -990 599 -8
2 -456 -266 -995 -595z m2212 -201 l631 -385 -923 -3 c-508 -1 -1342 -1 -1853
0 l-929 3 926 565 926 565 295 -180 c163 -99 580 -353 927 -565z"/>
<path d="M1771 2623 l84 -58 3 -126 3 -127 -88 -56 -88 -56 228 0 c125 0 227
2 227 4 0 2 -36 27 -80 56 l-80 53 0 143 c0 79 3 144 8 144 4 0 46 -89 94
-198 l87 -197 63 -3 63 -2 89 210 c49 115 90 210 92 210 2 0 4 -70 4 -155 l0
-155 -82 -55 -83 -55 285 0 285 1 -88 56 -88 56 3 126 3 126 84 55 83 55 -258
3 c-142 1 -261 -1 -265 -5 -4 -5 -26 -54 -49 -110 -23 -57 -45 -101 -49 -99
-4 3 -26 52 -51 110 l-44 106 -240 0 -240 0 85 -57z"/>
<path d="M500 2549 c-123 -21 -237 -102 -247 -176 -5 -36 -1 -45 31 -80 72
-81 235 -124 391 -104 131 16 218 80 201 147 l-7 26 -22 -34 c-38 -56 -86 -73
-209 -73 -93 0 -110 3 -135 21 -43 32 -59 83 -42 135 23 69 53 84 167 84 104
0 155 -18 208 -70 l24 -24 0 75 0 75 -30 -17 c-27 -17 -33 -17 -82 -2 -69 22
-179 29 -248 17z"/>
<path d="M978 2509 l62 -42 0 -96 0 -96 -63 -37 -62 -38 210 0 210 0 -62 40
c-50 32 -63 46 -63 65 0 24 2 25 68 25 82 0 100 -11 132 -79 l23 -51 116 0
116 1 -37 22 c-20 12 -47 39 -58 60 -13 22 -38 46 -63 59 l-42 22 38 8 c123
26 143 104 39 151 -44 19 -68 21 -337 25 l-290 3 63 -42z m436 -45 c20 -19 20
-29 0 -48 -12 -12 -37 -16 -110 -16 l-94 0 0 40 0 40 94 0 c73 0 98 -4 110
-16z"/>
<path d="M2920 2547 c0 -2 25 -21 55 -41 l55 -36 0 -99 0 -98 -57 -36 -58 -36
203 -1 c111 0 202 2 202 4 0 3 -25 20 -55 38 -91 54 -79 64 83 71 75 3 154 11
174 17 52 15 92 65 84 104 -8 41 -28 60 -89 87 -49 22 -67 23 -324 27 -150 2
-273 2 -273 -1z m481 -77 c22 -12 26 -59 7 -78 -8 -8 -46 -12 -105 -12 l-93 0
0 50 0 50 86 0 c47 0 94 -5 105 -10z"/>
<path d="M3627 2473 c-3 -43 -5 -79 -3 -80 1 -1 29 20 62 47 50 42 65 50 102
50 l42 0 0 -108 0 -108 -55 -33 c-30 -18 -55 -35 -55 -37 0 -2 93 -4 207 -4
l206 0 -61 40 -62 40 0 105 0 105 43 0 c36 0 52 -8 106 -52 l64 -52 -6 64 c-4
34 -7 71 -7 81 0 18 -14 19 -289 19 l-288 0 -6 -77z"/>
<path d="M3600 1605 l0 -385 290 0 290 0 0 385 0 385 -290 0 -290 0 0 -385z
m530 0 l0 -335 -240 0 -240 0 0 335 0 335 240 0 240 0 0 -335z"/>
<path d="M260 1595 l0 -385 290 0 290 0 0 385 0 385 -290 0 -290 0 0 -385z
m530 0 l0 -335 -240 0 -240 0 0 335 0 335 240 0 240 0 0 -335z"/>
<path d="M1100 1595 l0 -385 290 0 290 0 0 385 0 385 -290 0 -290 0 0 -385z
m530 0 l0 -335 -240 0 -240 0 0 335 0 335 240 0 240 0 0 -335z"/>
<path d="M1940 1595 l0 -385 290 0 290 0 0 385 0 385 -290 0 -290 0 0 -385z
m530 0 l0 -335 -240 0 -240 0 0 335 0 335 240 0 240 0 0 -335z"/>
<path d="M2730 1595 l0 -385 290 0 290 0 0 385 0 385 -290 0 -290 0 0 -385z
m530 0 l0 -335 -240 0 -240 0 0 335 0 335 240 0 240 0 0 -335z"/>
<path d="M250 900 l0 -160 1965 0 1965 0 0 160 0 160 -1965 0 -1965 0 0 -160z
m3880 0 l0 -110 -1915 0 -1915 0 0 110 0 110 1915 0 1915 0 0 -110z"/>
</g>
</svg>
